<svg width="20" height="20" viewBox="0 0 20 20" fill="none" xmlns="http://www.w3.org/2000/svg">
<path d="M3.05324 4.3845L0 1.3322L1.3322 0L4.3845 3.05324H18.7346C18.8814 3.05323 19.0261 3.08752 19.1572 3.15338C19.2884 3.21924 19.4023 3.31485 19.4899 3.43256C19.5776 3.55028 19.6364 3.68685 19.6619 3.83137C19.6874 3.97589 19.6787 4.12436 19.6366 4.26493L17.377 11.7968C17.3189 11.9909 17.1997 12.161 17.0373 12.2819C16.8748 12.4028 16.6776 12.4681 16.4751 12.4681H4.93621V14.3511H15.2926V16.2341H3.99473C3.74503 16.2341 3.50556 16.1349 3.329 15.9583C3.15243 15.7817 3.05324 15.5423 3.05324 15.2926V4.3845ZM4.93621 4.93621V10.5851H15.7746L17.4693 4.93621H4.93621ZM4.46547 20C4.09092 20 3.73172 19.8512 3.46687 19.5864C3.20203 19.3215 3.05324 18.9623 3.05324 18.5878C3.05324 18.2132 3.20203 17.854 3.46687 17.5892C3.73172 17.3243 4.09092 17.1755 4.46547 17.1755C4.84002 17.1755 5.19922 17.3243 5.46407 17.5892C5.72891 17.854 5.8777 18.2132 5.8777 18.5878C5.8777 18.9623 5.72891 19.3215 5.46407 19.5864C5.19922 19.8512 4.84002 20 4.46547 20ZM15.7633 20C15.3888 20 15.0296 19.8512 14.7647 19.5864C14.4999 19.3215 14.3511 18.9623 14.3511 18.5878C14.3511 18.2132 14.4999 17.854 14.7647 17.5892C15.0296 17.3243 15.3888 17.1755 15.7633 17.1755C16.1379 17.1755 16.4971 17.3243 16.7619 17.5892C17.0268 17.854 17.1755 18.2132 17.1755 18.5878C17.1755 18.9623 17.0268 19.3215 16.7619 19.5864C16.4971 19.8512 16.1379 20 15.7633 20Z" fill="#E0BEA2"/>
</svg>
