<svg width="20" height="19" viewBox="0 0 20 19" fill="none" xmlns="http://www.w3.org/2000/svg">
<path d="M10.0008 1.52895C12.3498 -0.580009 15.9797 -0.51001 18.2427 1.75695C20.5046 4.0249 20.5826 7.63684 18.4787 9.99279L9.99882 18.4846L1.52098 9.99279C-0.582983 7.63684 -0.503984 4.0189 1.75697 1.75695C4.02193 -0.50701 7.64486 -0.583009 10.0008 1.52895ZM16.8267 3.16992C15.3267 1.66795 12.9068 1.60695 11.3368 3.01692L10.0018 4.2149L8.66584 3.01792C7.09087 1.60595 4.67592 1.66795 3.17195 3.17192C1.68197 4.66189 1.60698 7.04685 2.97995 8.62282L9.99982 15.6537L17.0197 8.62382C18.3937 7.04685 18.3187 4.66489 16.8267 3.16992Z" fill="#E0BEA2"/>
</svg>
