<svg width="16" height="20" viewBox="0 0 16 20" fill="none" xmlns="http://www.w3.org/2000/svg">
<path d="M0 20C0 17.9793 0.802719 16.0414 2.23157 14.6125C3.66042 13.1837 5.59835 12.381 7.61905 12.381C9.63974 12.381 11.5777 13.1837 13.0065 14.6125C14.4354 16.0414 15.2381 17.9793 15.2381 20H13.3333C13.3333 18.4845 12.7313 17.031 11.6597 15.9594C10.588 14.8878 9.13457 14.2857 7.61905 14.2857C6.10352 14.2857 4.65007 14.8878 3.57844 15.9594C2.5068 17.031 1.90476 18.4845 1.90476 20H0ZM7.61905 11.4286C4.4619 11.4286 1.90476 8.87143 1.90476 5.71429C1.90476 2.55714 4.4619 0 7.61905 0C10.7762 0 13.3333 2.55714 13.3333 5.71429C13.3333 8.87143 10.7762 11.4286 7.61905 11.4286ZM7.61905 9.52381C9.72381 9.52381 11.4286 7.81905 11.4286 5.71429C11.4286 3.60952 9.72381 1.90476 7.61905 1.90476C5.51428 1.90476 3.80952 3.60952 3.80952 5.71429C3.80952 7.81905 5.51428 9.52381 7.61905 9.52381Z" fill="#E0BEA2"/>
</svg>
